<?xml version="1.0" encoding="UTF-8" standalone="no"?>
<svg
   viewBox="0 0 42 42"
   width="84"
   height="84"
   version="1.1"
   id="svg4"
   sodipodi:docname="facebook.svg"
   xmlns:inkscape="http://www.inkscape.org/namespaces/inkscape"
   xmlns:sodipodi="http://sodipodi.sourceforge.net/DTD/sodipodi-0.dtd"
   xmlns="http://www.w3.org/2000/svg"
   xmlns:svg="http://www.w3.org/2000/svg">
  <defs
     id="defs8" />
  <sodipodi:namedview
     id="namedview6"
     pagecolor="#ffffff"
     bordercolor="#000000"
     borderopacity="0.25"
     inkscape:showpageshadow="2"
     inkscape:pageopacity="0.0"
     inkscape:pagecheckerboard="0"
     inkscape:deskcolor="#d1d1d1"
     showgrid="false" />
  <path
     d="M 37,0 H 5 C 2.24,0 0,2.24 0,5 v 32 c 0,2.76 2.24,5 5,5 h 32 c 2.76,0 5,-2.24 5,-5 V 5 C 42,2.24 39.76,0 37,0 Z m -4,15 h -2 c -2.14,0 -3,0.5 -3,2 v 3 h 5 l -1,5 H 28 V 40 H 23 V 25 h -4 v -5 h 4 v -3 c 0,-4 2,-7 6,-7 2.9,0 4,1 4,1 z"
     id="path2"
     style="fill:#ffffff"
     inkscape:export-filename="path2.png"
     inkscape:export-xdpi="96"
     inkscape:export-ydpi="96" />
</svg>
