<?xml version="1.0" encoding="UTF-8" standalone="no"?>
<!-- Created with Inkscape (http://www.inkscape.org/) -->

<svg
   width="1440mm"
   height="550mm"
   viewBox="0 0 1440 550"
   version="1.1"
   id="svg3217"
   inkscape:export-filename="bitmap.png"
   inkscape:export-xdpi="96"
   inkscape:export-ydpi="96"
   inkscape:version="1.2.2 (732a01da63, 2022-12-09)"
   sodipodi:docname="banner.svg"
   xmlns:inkscape="http://www.inkscape.org/namespaces/inkscape"
   xmlns:sodipodi="http://sodipodi.sourceforge.net/DTD/sodipodi-0.dtd"
   xmlns:xlink="http://www.w3.org/1999/xlink"
   xmlns="http://www.w3.org/2000/svg"
   xmlns:svg="http://www.w3.org/2000/svg">
  <sodipodi:namedview
     id="namedview3219"
     pagecolor="#ffffff"
     bordercolor="#000000"
     borderopacity="0.25"
     inkscape:showpageshadow="2"
     inkscape:pageopacity="0.0"
     inkscape:pagecheckerboard="0"
     inkscape:deskcolor="#d1d1d1"
     inkscape:document-units="mm"
     showgrid="false"
     inkscape:zoom="0.12004244"
     inkscape:cx="674.76136"
     inkscape:cy="1207.9061"
     inkscape:window-width="1366"
     inkscape:window-height="697"
     inkscape:window-x="-8"
     inkscape:window-y="-8"
     inkscape:window-maximized="1"
     inkscape:current-layer="layer1" />
  <defs
     id="defs3214">
    <linearGradient
       id="linearGradient1034">
      <stop
         style="stop-color:#7f96af;stop-opacity:1;"
         offset="0"
         id="stop4802" />
      <stop
         style="stop-color:#eae6e6;stop-opacity:1;"
         offset="0.41256365"
         id="stop4804" />
      <stop
         style="stop-color:#001f3f;stop-opacity:1;"
         offset="1"
         id="stop4806" />
    </linearGradient>
    <linearGradient
       id="linearGradient1034-1">
      <stop
         style="stop-color:#00003d;stop-opacity:1;"
         offset="0"
         id="stop1028" />
      <stop
         style="stop-color:#000000;stop-opacity:1;"
         offset="1"
         id="stop1030" />
    </linearGradient>
    <linearGradient
       inkscape:collect="always"
       xlink:href="#linearGradient1034"
       id="linearGradient3473"
       x1="108.07732"
       y1="794.05048"
       x2="819.45801"
       y2="794.05048"
       gradientUnits="userSpaceOnUse"
       gradientTransform="translate(-1.5210351,-31.116393)" />
  </defs>
  <g
     inkscape:label="Camada 1"
     inkscape:groupmode="layer"
     id="layer1">
    <rect
       style="fill:#000000;stroke-width:0.154781;stroke-linecap:round;stroke-miterlimit:5.6;paint-order:stroke markers fill;fill-opacity:1"
       id="rect3607"
       width="1440"
       height="550"
       x="0"
       y="0" />
    <g
       id="g1009"
       transform="matrix(0.53799936,0,0,0.53799936,8.0473937,-1.8227285)"
       style="fill:#ffffff">
      <path
         style="fill:#ffffff;fill-opacity:1;stroke-width:1.12835"
         d="m 480.88874,687.0627 c -62.2032,-3.52639 -119.18315,-28.6821 -161.91913,-71.48447 l -15.23278,-15.25648 95.71733,-0.28842 c 52.64455,-0.15871 138.45595,-0.15871 190.69213,0 l 94.97483,0.28842 -14.10448,14.11932 c -32.45678,32.49094 -67.76286,52.11771 -115.79974,64.37336 -24.44217,6.23599 -53.31195,9.43962 -74.32816,8.24827 z m -118.67285,-100.57196 -67.89676,-0.29081 -7.25807,-10.99278 c -3.99196,-6.04601 -8.10603,-12.64301 -9.14244,-14.6599 l -1.88444,-3.66718 h 50.80503 50.80491 v -6.77011 -6.77015 h -54.07831 -54.07838 l -2.69518,-5.92383 c -5.46583,-12.01383 -8.00948,-18.89207 -7.26262,-19.63893 1.27362,-1.27361 3.69362,-1.32633 65.36387,-1.42378 l 59.52082,-0.094 v -6.77014 -6.77013 h -64.19561 c -60.09519,0 -64.24438,-0.12617 -64.96,-1.97466 -1.52681,-3.94391 -4.91633,-22.26393 -4.30277,-23.25655 0.37188,-0.60178 38.4477,-0.75398 92.97034,-0.37163 62.08437,0.43535 92.57292,0.27136 93.0499,-0.50044 0.3903,-0.6314 0.36541,-3.90229 -0.055,-7.2686 l -0.76476,-6.1206 h -93.44074 -93.44075 l -0.68033,-2.53881 c -0.37421,-1.39633 -0.68733,-6.93836 -0.69577,-12.31563 l -0.0149,-9.77685 8.1805,-0.74303 c 4.49935,-0.40872 46.91969,-0.57892 94.26741,-0.37839 l 86.08678,0.3647 0.59305,-2.36424 c 0.32617,-1.30036 0.43075,-4.34691 0.23242,-6.77013 l -0.36063,-4.4059 -94.31,-0.28848 -94.30994,-0.28848 0.49398,-6.48165 c 0.27178,-3.56494 0.82314,-9.27436 1.22535,-12.68762 l 0.73117,-6.20592 93.08472,-0.56422 93.08472,-0.56415 0.32897,-6.77014 0.32887,-6.77012 -86.64017,0.36905 c -47.65211,0.20306 -88.83411,0.0401 -91.51567,-0.36199 -5.65594,-0.84815 -5.63033,0.0137 -0.54488,-18.34286 l 2.89159,-10.43732 h 97.44874 97.44879 l 1.3e-4,-7.05219 6e-5,-7.05222 -94.23828,0.29488 -94.23827,0.29488 1.77066,-4.24413 c 2.78546,-6.67669 13.14553,-25.59441 14.51887,-26.51188 0.68249,-0.45594 95.29713,-0.83678 210.2547,-0.8463 l 209.01367,-0.0174 2.72463,4.31603 c 3.64665,5.77662 13.10073,24.66795 13.10073,26.17807 0,0.82929 -9.62099,1.09863 -31.03067,0.86884 l -31.03068,-0.33311 v 7.05221 7.05221 h 34.29409 c 31.60918,0 34.35578,0.15459 35.08092,1.97466 1.64605,4.13129 7.35317,23.19109 7.35317,24.55703 0,2.15437 -5.31558,2.44632 -42.59538,2.33936 l -34.13267,-0.098 -6e-5,7.05228 -7e-5,7.0522 h 39.93425 39.93434 l 0.70076,2.79223 c 0.38546,1.53571 0.97279,5.97864 1.30552,9.87309 0.33253,3.8945 0.82113,8.47724 1.08583,10.18389 l 0.48123,3.10295 H 699.1962 657.47522 v 6.77013 6.77014 h 41.74915 41.74916 v 12.97611 12.9761 h -41.74916 -41.74916 v 7.30971 7.30963 l 40.67278,-0.25743 c 40.16167,-0.25426 40.66603,-0.22913 40.14356,1.99924 -0.29096,1.2412 -1.41618,6.9535 -2.50053,12.69404 l -1.97135,10.43724 h -38.73644 -38.73647 v 6.77013 6.77013 h 36.67161 c 22.70298,0 36.6715,0.41305 36.6715,1.08435 0,0.59639 -2.11376,6.68955 -4.69726,13.54032 l -4.69737,12.45592 h -45.41298 -45.41309 l -6.30739,6.06037 c -3.46915,3.33321 -6.30744,6.37431 -6.30744,6.75804 0,0.38366 21.59365,0.83002 47.98576,0.99184 l 47.98571,0.29416 -7.08284,11.43549 c -3.89552,6.28949 -8.09832,12.75362 -9.33952,14.36465 l -2.25678,2.92924 -132.0176,0.30392 c -72.60962,0.1672 -162.5711,0.17313 -199.91438,0.0132 z m 86.51471,-9.91635 c 10.58507,-3.53693 20.29196,-13.16378 25.34685,-25.13781 2.0909,-4.95283 2.26397,-8.82873 2.82675,-63.29662 l 0.59944,-58.02075 22.56713,-6.59963 c 33.20897,-9.71175 75.98749,-22.31042 81.80573,-24.09249 13.16599,-4.03259 31.28301,-9.36787 33.56858,-9.88567 l 2.53882,-0.57509 v 40.60918 c 0,22.33507 -0.38079,40.41404 -0.84624,40.17552 -10.40528,-5.33272 -12.41674,-5.88095 -21.72083,-5.92002 -8.20367,-0.0346 -10.49552,0.40388 -15.84366,3.03045 -14.62914,7.18472 -20.88561,17.50154 -20.71865,34.16498 0.11433,11.41127 2.76705,17.69215 10.9122,25.8373 8.34199,8.34199 16.27465,11.27773 28.33034,10.48457 19.08374,-1.2555 34.55396,-14.6858 37.85352,-32.86192 0.80225,-4.4193 1.2154,-37.31777 1.2154,-96.77798 v -90.08275 l -3.10301,0.75284 c -8.35239,2.02635 -91.99997,26.38297 -174.33091,50.7619 -1.85328,0.54878 -1.97465,4.91423 -1.97465,71.0309 0,38.74539 -0.2249,70.44622 -0.49967,70.44622 -0.27483,0 -2.40348,-1.12328 -4.73033,-2.49615 -3.30571,-1.95043 -6.46508,-2.59056 -14.45103,-2.92791 -13.79531,-0.58282 -21.2045,2.12313 -30.05971,10.97836 -8.07218,8.07216 -10.4704,14.61802 -9.87836,26.96219 0.50659,10.56257 3.25945,16.76181 10.81778,24.36057 11.21205,11.27206 24.28334,14.25602 39.77451,9.07981 z m 120.734,-20.89507 c 0,-0.66034 -2.66575,-3.68757 -5.92389,-6.72705 l -5.9238,-5.52643 -31.31185,-0.0431 -31.31191,-0.0431 v 6.77014 6.77012 h 37.23569 c 25.56774,0 37.23576,-0.37624 37.23576,-1.20075 z m -30.46556,-46.19017 v -6.77013 h -22.00297 -22.00292 v 6.77013 6.77014 h 22.00292 22.00291 z M 294.14581,295.60545 c 0,-1.5844 13.69803,-17.52893 23.06308,-26.84553 39.05881,-38.85661 86.571,-62.76794 141.94597,-71.43681 14.04202,-2.19822 52.17074,-2.50441 66.30385,-0.53245 31.81141,4.43868 60.12847,13.55163 86.69275,27.89942 11.55142,6.23912 31.75588,19.87109 42.43518,28.63115 9.81601,8.05194 31.47332,30.31934 36.52838,37.55748 l 3.73728,5.3512 H 494.49906 c -110.19429,0 -200.35325,-0.28101 -200.35325,-0.62446 z"
         id="path300"
         sodipodi:nodetypes="sscsscsssccsscccccccssscccsssssccccsccsscssccccscccccssscccccccssscssscccsssscccccssscccccccccccccssscccccssscccssscsscsccssscssscssssssssscsssssssssssscccccssscccccccccssssssscss"
         inkscape:export-filename="path300.svg"
         inkscape:export-xdpi="96"
         inkscape:export-ydpi="96" />
      <text
         xml:space="preserve"
         style="font-style:normal;font-variant:normal;font-weight:normal;font-stretch:normal;font-size:118.96px;line-height:1.4;font-family:'Alien Encounters';-inkscape-font-specification:'Alien Encounters, Normal';font-variant-ligatures:normal;font-variant-caps:normal;font-variant-numeric:normal;font-variant-east-asian:normal;text-align:end;text-anchor:end;fill:#ffffff;fill-opacity:1;stroke-width:1.30485;stroke-linecap:round;stroke-miterlimit:5.6;paint-order:stroke markers fill"
         x="807.11078"
         y="920.30048"
         id="text377-1"
         transform="scale(1.1040011,0.9057962)"><tspan
           sodipodi:role="line"
           id="tspan375-9"
           x="807.11078"
           y="920.30048"
           style="font-style:normal;font-variant:normal;font-weight:normal;font-stretch:normal;font-size:118.96px;font-family:'Alien Encounters';-inkscape-font-specification:'Alien Encounters, Normal';font-variant-ligatures:normal;font-variant-caps:normal;font-variant-numeric:normal;font-variant-east-asian:normal;fill:#ffffff;fill-opacity:1;stroke-width:1.30485">yoursongs</tspan></text>
      <path
         style="fill:none;stroke-width:0.287698;stroke-linecap:round;stroke-miterlimit:5.6;paint-order:stroke markers fill"
         id="path4244"
         sodipodi:type="arc"
         sodipodi:cx="488.7872"
         sodipodi:cy="426.8194"
         sodipodi:rx="311.67392"
         sodipodi:ry="311.67392"
         sodipodi:start="3.1826428"
         sodipodi:end="3.1415927"
         sodipodi:open="true"
         sodipodi:arc-type="chord"
         d="M 177.37585,414.02873 A 311.67392,311.67392 0 0 1 498.38138,115.29318 311.67392,311.67392 0 0 1 800.39547,433.21608 311.67392,311.67392 0 0 1 485.58869,738.4769 311.67392,311.67392 0 0 1 177.11328,426.8194 Z" />
    </g>
  </g>
</svg>
